<mxfile host="65bd71144e">
    <diagram id="QvviNFdsMGVvqDGoGLUo" name="Page-1">
        <mxGraphModel dx="2638" dy="2001" grid="0" gridSize="10" guides="1" tooltips="1" connect="1" arrows="1" fold="1" page="0" pageScale="1" pageWidth="850" pageHeight="1100" math="0" shadow="0">
            <root>
                <mxCell id="0"/>
                <mxCell id="1" parent="0"/>
                <mxCell id="2" value="" style="shape=umlActor;verticalLabelPosition=bottom;verticalAlign=top;html=1;" parent="1" vertex="1">
                    <mxGeometry x="-770" y="-1090" width="30" height="60" as="geometry"/>
                </mxCell>
                <mxCell id="3" value=":Login" style="shape=umlLifeline;perimeter=lifelinePerimeter;whiteSpace=wrap;html=1;container=1;collapsible=0;recursiveResize=0;outlineConnect=0;" parent="1" vertex="1">
                    <mxGeometry x="-680" y="-1020" width="100" height="900" as="geometry"/>
                </mxCell>
                <mxCell id="17" value="" style="html=1;points=[];perimeter=orthogonalPerimeter;fillColor=strokeColor;" parent="3" vertex="1">
                    <mxGeometry x="47.5" y="100" width="5" height="750" as="geometry"/>
                </mxCell>
                <mxCell id="23" value="" style="html=1;verticalAlign=bottom;labelBackgroundColor=none;endArrow=block;endFill=1;" parent="3" edge="1">
                    <mxGeometry width="160" relative="1" as="geometry">
                        <mxPoint x="-70" y="100" as="sourcePoint"/>
                        <mxPoint x="50" y="100" as="targetPoint"/>
                    </mxGeometry>
                </mxCell>
                <mxCell id="25" value="" style="html=1;verticalAlign=bottom;labelBackgroundColor=none;endArrow=block;endFill=1;" parent="3" target="4" edge="1">
                    <mxGeometry width="160" relative="1" as="geometry">
                        <mxPoint x="52.5" y="140" as="sourcePoint"/>
                        <mxPoint x="212.5" y="140" as="targetPoint"/>
                    </mxGeometry>
                </mxCell>
                <mxCell id="33" value="" style="html=1;verticalAlign=bottom;labelBackgroundColor=none;endArrow=block;endFill=1;" parent="3" target="6" edge="1">
                    <mxGeometry width="160" relative="1" as="geometry">
                        <mxPoint x="-70" y="300" as="sourcePoint"/>
                        <mxPoint x="90" y="300" as="targetPoint"/>
                    </mxGeometry>
                </mxCell>
                <mxCell id="84" value="" style="html=1;verticalAlign=bottom;labelBackgroundColor=none;endArrow=block;endFill=1;" parent="3" edge="1">
                    <mxGeometry width="160" relative="1" as="geometry">
                        <mxPoint x="52.5" y="850" as="sourcePoint"/>
                        <mxPoint x="-67.5" y="850" as="targetPoint"/>
                    </mxGeometry>
                </mxCell>
                <mxCell id="85" value="logout" style="edgeLabel;html=1;align=center;verticalAlign=middle;resizable=0;points=[];" parent="84" vertex="1" connectable="0">
                    <mxGeometry x="0.2822" y="2" relative="1" as="geometry">
                        <mxPoint as="offset"/>
                    </mxGeometry>
                </mxCell>
                <mxCell id="4" value=":PasswordVerific" style="shape=umlLifeline;perimeter=lifelinePerimeter;whiteSpace=wrap;html=1;container=1;collapsible=0;recursiveResize=0;outlineConnect=0;" parent="1" vertex="1">
                    <mxGeometry x="-440" y="-1020" width="100" height="900" as="geometry"/>
                </mxCell>
                <mxCell id="18" value="" style="html=1;points=[];perimeter=orthogonalPerimeter;fillColor=strokeColor;" parent="4" vertex="1">
                    <mxGeometry x="47.5" y="140" width="5" height="40" as="geometry"/>
                </mxCell>
                <mxCell id="31" value="" style="html=1;verticalAlign=bottom;labelBackgroundColor=none;endArrow=block;endFill=1;dashed=1;" parent="4" target="3" edge="1">
                    <mxGeometry width="160" relative="1" as="geometry">
                        <mxPoint x="166.5" y="260" as="sourcePoint"/>
                        <mxPoint x="-74" y="260" as="targetPoint"/>
                    </mxGeometry>
                </mxCell>
                <mxCell id="34" value="check inventory" style="text;html=1;align=center;verticalAlign=middle;resizable=0;points=[];autosize=1;strokeColor=none;fillColor=none;" parent="4" vertex="1">
                    <mxGeometry x="-10" y="270" width="110" height="30" as="geometry"/>
                </mxCell>
                <mxCell id="5" value=":LoginError" style="shape=umlLifeline;perimeter=lifelinePerimeter;whiteSpace=wrap;html=1;container=1;collapsible=0;recursiveResize=0;outlineConnect=0;" parent="1" vertex="1">
                    <mxGeometry x="-321" y="-1020" width="100" height="900" as="geometry"/>
                </mxCell>
                <mxCell id="19" value="" style="html=1;points=[];perimeter=orthogonalPerimeter;fillColor=strokeColor;" parent="5" vertex="1">
                    <mxGeometry x="47.5" y="220" width="5" height="40" as="geometry"/>
                </mxCell>
                <mxCell id="6" value=":CheckStock" style="shape=umlLifeline;perimeter=lifelinePerimeter;whiteSpace=wrap;html=1;container=1;collapsible=0;recursiveResize=0;outlineConnect=0;" parent="1" vertex="1">
                    <mxGeometry x="-200" y="-1020" width="100" height="900" as="geometry"/>
                </mxCell>
                <mxCell id="20" value="" style="html=1;points=[];perimeter=orthogonalPerimeter;fillColor=strokeColor;" parent="6" vertex="1">
                    <mxGeometry x="47.5" y="300" width="5" height="120" as="geometry"/>
                </mxCell>
                <mxCell id="69" value="Result" style="html=1;verticalAlign=bottom;labelBackgroundColor=none;endArrow=block;endFill=1;dashed=1;" parent="6" edge="1">
                    <mxGeometry width="160" relative="1" as="geometry">
                        <mxPoint x="170.25" y="440" as="sourcePoint"/>
                        <mxPoint x="-430" y="440" as="targetPoint"/>
                    </mxGeometry>
                </mxCell>
                <mxCell id="7" value=":ManageMaterial" style="shape=umlLifeline;perimeter=lifelinePerimeter;whiteSpace=wrap;html=1;container=1;collapsible=0;recursiveResize=0;outlineConnect=0;" parent="1" vertex="1">
                    <mxGeometry x="-80" y="-1020" width="105" height="900" as="geometry"/>
                </mxCell>
                <mxCell id="21" value="" style="html=1;points=[];perimeter=orthogonalPerimeter;fillColor=strokeColor;" parent="7" vertex="1">
                    <mxGeometry x="47.5" y="340" width="5" height="100" as="geometry"/>
                </mxCell>
                <mxCell id="43" value="result" style="text;html=1;align=center;verticalAlign=middle;resizable=0;points=[];autosize=1;strokeColor=none;fillColor=none;" parent="7" vertex="1">
                    <mxGeometry x="-10" y="470" width="50" height="30" as="geometry"/>
                </mxCell>
                <mxCell id="8" value=":ManagExterTrain" style="shape=umlLifeline;perimeter=lifelinePerimeter;whiteSpace=wrap;html=1;container=1;collapsible=0;recursiveResize=0;outlineConnect=0;" parent="1" vertex="1">
                    <mxGeometry x="40" y="-1020" width="100" height="900" as="geometry"/>
                </mxCell>
                <mxCell id="22" value="" style="html=1;points=[];perimeter=orthogonalPerimeter;fillColor=strokeColor;" parent="8" vertex="1">
                    <mxGeometry x="47.5" y="380" width="5" height="120" as="geometry"/>
                </mxCell>
                <mxCell id="9" value=":ManageComp" style="shape=umlLifeline;perimeter=lifelinePerimeter;whiteSpace=wrap;html=1;container=1;collapsible=0;recursiveResize=0;outlineConnect=0;" parent="1" vertex="1">
                    <mxGeometry x="230" y="-1020" width="100" height="900" as="geometry"/>
                </mxCell>
                <mxCell id="48" value="" style="html=1;points=[];perimeter=orthogonalPerimeter;fillColor=strokeColor;" parent="9" vertex="1">
                    <mxGeometry x="47.5" y="460" width="5" height="30" as="geometry"/>
                </mxCell>
                <mxCell id="71" value="Result" style="html=1;verticalAlign=bottom;labelBackgroundColor=none;endArrow=open;endFill=0;dashed=1;" parent="9" edge="1">
                    <mxGeometry width="160" relative="1" as="geometry">
                        <mxPoint x="54.75" y="490" as="sourcePoint"/>
                        <mxPoint x="-134.75" y="490" as="targetPoint"/>
                    </mxGeometry>
                </mxCell>
                <mxCell id="73" value="" style="html=1;points=[];perimeter=orthogonalPerimeter;fillColor=strokeColor;" parent="9" vertex="1">
                    <mxGeometry x="47.5" y="520" width="5" height="30" as="geometry"/>
                </mxCell>
                <mxCell id="10" value=":ManageClothing" style="shape=umlLifeline;perimeter=lifelinePerimeter;whiteSpace=wrap;html=1;container=1;collapsible=0;recursiveResize=0;outlineConnect=0;" parent="1" vertex="1">
                    <mxGeometry x="350" y="-1020" width="100" height="900" as="geometry"/>
                </mxCell>
                <mxCell id="49" value="" style="html=1;points=[];perimeter=orthogonalPerimeter;fillColor=strokeColor;" parent="10" vertex="1">
                    <mxGeometry x="47.5" y="570" width="5" height="40" as="geometry"/>
                </mxCell>
                <mxCell id="56" value="" style="html=1;verticalAlign=bottom;labelBackgroundColor=none;endArrow=open;endFill=0;dashed=1;" parent="10" edge="1">
                    <mxGeometry width="160" relative="1" as="geometry">
                        <mxPoint x="-977.5" y="630" as="sourcePoint"/>
                        <mxPoint x="170" y="630" as="targetPoint"/>
                    </mxGeometry>
                </mxCell>
                <mxCell id="57" value="manage maintenance" style="edgeLabel;html=1;align=center;verticalAlign=middle;resizable=0;points=[];" parent="56" vertex="1" connectable="0">
                    <mxGeometry x="0.2887" y="9" relative="1" as="geometry">
                        <mxPoint x="-80" as="offset"/>
                    </mxGeometry>
                </mxCell>
                <mxCell id="11" value=":Manage&lt;br&gt;Issue" style="shape=umlLifeline;perimeter=lifelinePerimeter;whiteSpace=wrap;html=1;container=1;collapsible=0;recursiveResize=0;outlineConnect=0;" parent="1" vertex="1">
                    <mxGeometry x="470" y="-1020" width="100" height="900" as="geometry"/>
                </mxCell>
                <mxCell id="50" value="" style="html=1;points=[];perimeter=orthogonalPerimeter;fillColor=strokeColor;" parent="11" vertex="1">
                    <mxGeometry x="47.5" y="630" width="5" height="190" as="geometry"/>
                </mxCell>
                <mxCell id="58" value="" style="html=1;verticalAlign=bottom;labelBackgroundColor=none;endArrow=open;endFill=0;dashed=1;" parent="11" edge="1">
                    <mxGeometry width="160" relative="1" as="geometry">
                        <mxPoint x="50" y="659" as="sourcePoint"/>
                        <mxPoint x="167.5" y="659" as="targetPoint"/>
                    </mxGeometry>
                </mxCell>
                <mxCell id="12" value=":ManageTicket" style="shape=umlLifeline;perimeter=lifelinePerimeter;whiteSpace=wrap;html=1;container=1;collapsible=0;recursiveResize=0;outlineConnect=0;" parent="1" vertex="1">
                    <mxGeometry x="590" y="-1020" width="100" height="820" as="geometry"/>
                </mxCell>
                <mxCell id="51" value="" style="html=1;points=[];perimeter=orthogonalPerimeter;fillColor=strokeColor;" parent="12" vertex="1">
                    <mxGeometry x="47.5" y="660" width="5" height="160" as="geometry"/>
                </mxCell>
                <mxCell id="63" value="" style="html=1;verticalAlign=bottom;labelBackgroundColor=none;endArrow=open;endFill=0;dashed=1;" parent="12" edge="1">
                    <mxGeometry width="160" relative="1" as="geometry">
                        <mxPoint x="-1220" y="740" as="sourcePoint"/>
                        <mxPoint x="167.5" y="740" as="targetPoint"/>
                    </mxGeometry>
                </mxCell>
                <mxCell id="64" value="manage students" style="edgeLabel;html=1;align=center;verticalAlign=middle;resizable=0;points=[];" parent="63" vertex="1" connectable="0">
                    <mxGeometry x="0.2887" y="9" relative="1" as="geometry">
                        <mxPoint x="-80" as="offset"/>
                    </mxGeometry>
                </mxCell>
                <mxCell id="81" value="" style="html=1;verticalAlign=bottom;labelBackgroundColor=none;endArrow=open;endFill=0;dashed=1;" parent="12" edge="1">
                    <mxGeometry width="160" relative="1" as="geometry">
                        <mxPoint x="52.5" y="819" as="sourcePoint"/>
                        <mxPoint x="-65" y="819" as="targetPoint"/>
                    </mxGeometry>
                </mxCell>
                <mxCell id="80" value="ticket closure" style="text;html=1;align=center;verticalAlign=middle;resizable=0;points=[];autosize=1;strokeColor=none;fillColor=none;" parent="12" vertex="1">
                    <mxGeometry x="-50" y="790" width="90" height="30" as="geometry"/>
                </mxCell>
                <mxCell id="13" value=":ManageStudents" style="shape=umlLifeline;perimeter=lifelinePerimeter;whiteSpace=wrap;html=1;container=1;collapsible=0;recursiveResize=0;outlineConnect=0;" parent="1" vertex="1">
                    <mxGeometry x="710" y="-1020" width="100" height="900" as="geometry"/>
                </mxCell>
                <mxCell id="52" value="" style="html=1;points=[];perimeter=orthogonalPerimeter;fillColor=strokeColor;" parent="13" vertex="1">
                    <mxGeometry x="47.5" y="740" width="5" height="80" as="geometry"/>
                </mxCell>
                <mxCell id="14" value=":ManageLockers" style="shape=umlLifeline;perimeter=lifelinePerimeter;whiteSpace=wrap;html=1;container=1;collapsible=0;recursiveResize=0;outlineConnect=0;" parent="1" vertex="1">
                    <mxGeometry x="830" y="-1020" width="100" height="900" as="geometry"/>
                </mxCell>
                <mxCell id="53" value="" style="html=1;points=[];perimeter=orthogonalPerimeter;fillColor=strokeColor;" parent="14" vertex="1">
                    <mxGeometry x="47.5" y="780" width="5" height="40" as="geometry"/>
                </mxCell>
                <mxCell id="16" value="&lt;span style=&quot;&quot;&gt;Technician/Admin&lt;/span&gt;" style="shape=umlLifeline;perimeter=lifelinePerimeter;whiteSpace=wrap;html=1;container=1;collapsible=0;recursiveResize=0;outlineConnect=0;" parent="1" vertex="1">
                    <mxGeometry x="-800" y="-1020" width="100" height="920" as="geometry"/>
                </mxCell>
                <mxCell id="24" value="login" style="text;html=1;align=center;verticalAlign=middle;resizable=0;points=[];autosize=1;strokeColor=none;fillColor=none;" parent="1" vertex="1">
                    <mxGeometry x="-715" y="-945" width="50" height="30" as="geometry"/>
                </mxCell>
                <mxCell id="26" value="password verification" style="text;html=1;align=center;verticalAlign=middle;resizable=0;points=[];autosize=1;strokeColor=none;fillColor=none;" parent="1" vertex="1">
                    <mxGeometry x="-590" y="-905" width="140" height="30" as="geometry"/>
                </mxCell>
                <mxCell id="27" value="" style="html=1;verticalAlign=bottom;labelBackgroundColor=none;endArrow=block;endFill=1;dashed=1;" parent="1" target="3" edge="1">
                    <mxGeometry width="160" relative="1" as="geometry">
                        <mxPoint x="-390" y="-840" as="sourcePoint"/>
                        <mxPoint x="-550" y="-840" as="targetPoint"/>
                    </mxGeometry>
                </mxCell>
                <mxCell id="28" value="verification result" style="text;html=1;align=center;verticalAlign=middle;resizable=0;points=[];autosize=1;strokeColor=none;fillColor=none;" parent="1" vertex="1">
                    <mxGeometry x="-565" y="-865" width="110" height="30" as="geometry"/>
                </mxCell>
                <mxCell id="29" value="" style="html=1;verticalAlign=bottom;labelBackgroundColor=none;endArrow=block;endFill=1;" parent="1" target="5" edge="1">
                    <mxGeometry width="160" relative="1" as="geometry">
                        <mxPoint x="-630" y="-800" as="sourcePoint"/>
                        <mxPoint x="-470" y="-800" as="targetPoint"/>
                    </mxGeometry>
                </mxCell>
                <mxCell id="30" value="login error" style="text;html=1;align=center;verticalAlign=middle;resizable=0;points=[];autosize=1;strokeColor=none;fillColor=none;" parent="1" vertex="1">
                    <mxGeometry x="-500" y="-825" width="80" height="30" as="geometry"/>
                </mxCell>
                <mxCell id="32" value="error handling" style="text;html=1;align=center;verticalAlign=middle;resizable=0;points=[];autosize=1;strokeColor=none;fillColor=none;" parent="1" vertex="1">
                    <mxGeometry x="-490" y="-785" width="100" height="30" as="geometry"/>
                </mxCell>
                <mxCell id="38" value="" style="html=1;verticalAlign=bottom;labelBackgroundColor=none;endArrow=open;endFill=0;dashed=1;" parent="1" target="8" edge="1">
                    <mxGeometry width="160" relative="1" as="geometry">
                        <mxPoint x="-630" y="-640" as="sourcePoint"/>
                        <mxPoint x="-29" y="-640" as="targetPoint"/>
                    </mxGeometry>
                </mxCell>
                <mxCell id="39" value="manage external trainings" style="edgeLabel;html=1;align=center;verticalAlign=middle;resizable=0;points=[];" parent="38" vertex="1" connectable="0">
                    <mxGeometry x="-0.9238" y="7" relative="1" as="geometry">
                        <mxPoint x="382" y="-3" as="offset"/>
                    </mxGeometry>
                </mxCell>
                <mxCell id="40" value="" style="html=1;verticalAlign=bottom;labelBackgroundColor=none;endArrow=open;endFill=0;dashed=1;" parent="1" edge="1">
                    <mxGeometry width="160" relative="1" as="geometry">
                        <mxPoint x="-630" y="-600" as="sourcePoint"/>
                        <mxPoint x="-149" y="-600" as="targetPoint"/>
                    </mxGeometry>
                </mxCell>
                <mxCell id="41" value="check inventory" style="edgeLabel;html=1;align=center;verticalAlign=middle;resizable=0;points=[];" parent="40" vertex="1" connectable="0">
                    <mxGeometry x="-0.9238" y="7" relative="1" as="geometry">
                        <mxPoint x="302" y="-13" as="offset"/>
                    </mxGeometry>
                </mxCell>
                <mxCell id="42" value="" style="html=1;verticalAlign=bottom;labelBackgroundColor=none;endArrow=block;endFill=1;dashed=1;" parent="1" target="3" edge="1">
                    <mxGeometry width="160" relative="1" as="geometry">
                        <mxPoint x="90" y="-520" as="sourcePoint"/>
                        <mxPoint x="-70" y="-520" as="targetPoint"/>
                    </mxGeometry>
                </mxCell>
                <mxCell id="46" value="" style="html=1;verticalAlign=bottom;labelBackgroundColor=none;endArrow=open;endFill=0;dashed=1;" parent="1" target="9" edge="1">
                    <mxGeometry width="160" relative="1" as="geometry">
                        <mxPoint x="90" y="-560" as="sourcePoint"/>
                        <mxPoint x="250" y="-560" as="targetPoint"/>
                    </mxGeometry>
                </mxCell>
                <mxCell id="47" value="manage companies/clients" style="text;html=1;align=center;verticalAlign=middle;resizable=0;points=[];autosize=1;strokeColor=none;fillColor=none;" parent="1" vertex="1">
                    <mxGeometry x="105" y="-595" width="170" height="30" as="geometry"/>
                </mxCell>
                <mxCell id="54" value="" style="html=1;verticalAlign=bottom;labelBackgroundColor=none;endArrow=open;endFill=0;dashed=1;" parent="1" source="3" target="10" edge="1">
                    <mxGeometry width="160" relative="1" as="geometry">
                        <mxPoint x="210" y="-480" as="sourcePoint"/>
                        <mxPoint x="399.5" y="-480" as="targetPoint"/>
                        <Array as="points">
                            <mxPoint x="370" y="-450"/>
                        </Array>
                    </mxGeometry>
                </mxCell>
                <mxCell id="55" value="manage clothing" style="edgeLabel;html=1;align=center;verticalAlign=middle;resizable=0;points=[];" parent="54" vertex="1" connectable="0">
                    <mxGeometry x="0.2887" y="9" relative="1" as="geometry">
                        <mxPoint x="-113" y="19" as="offset"/>
                    </mxGeometry>
                </mxCell>
                <mxCell id="60" value="manage ticket" style="text;html=1;align=center;verticalAlign=middle;resizable=0;points=[];autosize=1;strokeColor=none;fillColor=none;" parent="1" vertex="1">
                    <mxGeometry x="530" y="-390" width="100" height="30" as="geometry"/>
                </mxCell>
                <mxCell id="61" value="" style="html=1;verticalAlign=bottom;labelBackgroundColor=none;endArrow=block;endFill=1;dashed=1;exitX=0.34;exitY=1;exitDx=0;exitDy=0;exitPerimeter=0;" parent="1" source="50" target="6" edge="1">
                    <mxGeometry width="160" relative="1" as="geometry">
                        <mxPoint x="520" y="-320" as="sourcePoint"/>
                        <mxPoint x="360" y="-320" as="targetPoint"/>
                        <Array as="points">
                            <mxPoint x="440" y="-200"/>
                        </Array>
                    </mxGeometry>
                </mxCell>
                <mxCell id="62" value="result" style="text;html=1;align=center;verticalAlign=middle;resizable=0;points=[];autosize=1;strokeColor=none;fillColor=none;" parent="1" vertex="1">
                    <mxGeometry x="200" y="-225" width="50" height="30" as="geometry"/>
                </mxCell>
                <mxCell id="65" value="" style="html=1;verticalAlign=bottom;labelBackgroundColor=none;endArrow=open;endFill=0;dashed=1;" parent="1" edge="1">
                    <mxGeometry width="160" relative="1" as="geometry">
                        <mxPoint x="760" y="-240" as="sourcePoint"/>
                        <mxPoint x="880" y="-240" as="targetPoint"/>
                    </mxGeometry>
                </mxCell>
                <mxCell id="66" value="manage lockers" style="text;html=1;align=center;verticalAlign=middle;resizable=0;points=[];autosize=1;strokeColor=none;fillColor=none;" parent="1" vertex="1">
                    <mxGeometry x="765" y="-265" width="110" height="30" as="geometry"/>
                </mxCell>
                <mxCell id="67" value="" style="html=1;verticalAlign=bottom;labelBackgroundColor=none;endArrow=block;endFill=1;dashed=1;" parent="1" edge="1">
                    <mxGeometry width="160" relative="1" as="geometry">
                        <mxPoint x="760" y="-200" as="sourcePoint"/>
                        <mxPoint x="882.5" y="-200" as="targetPoint"/>
                    </mxGeometry>
                </mxCell>
                <mxCell id="68" value="result" style="text;html=1;align=center;verticalAlign=middle;resizable=0;points=[];autosize=1;strokeColor=none;fillColor=none;" parent="1" vertex="1">
                    <mxGeometry x="785" y="-225" width="50" height="30" as="geometry"/>
                </mxCell>
                <mxCell id="36" value="" style="html=1;verticalAlign=bottom;labelBackgroundColor=none;endArrow=open;endFill=0;dashed=1;exitX=1.22;exitY=0.302;exitDx=0;exitDy=0;exitPerimeter=0;" parent="1" source="17" target="7" edge="1">
                    <mxGeometry width="160" relative="1" as="geometry">
                        <mxPoint x="-750" y="-680" as="sourcePoint"/>
                        <mxPoint x="-590" y="-680" as="targetPoint"/>
                    </mxGeometry>
                </mxCell>
                <mxCell id="37" value="manage inventory" style="edgeLabel;html=1;align=center;verticalAlign=middle;resizable=0;points=[];" parent="36" vertex="1" connectable="0">
                    <mxGeometry x="-0.9238" y="7" relative="1" as="geometry">
                        <mxPoint x="382" y="-13" as="offset"/>
                    </mxGeometry>
                </mxCell>
                <mxCell id="72" value="" style="html=1;verticalAlign=bottom;labelBackgroundColor=none;endArrow=open;endFill=0;dashed=1;" parent="1" target="9" edge="1">
                    <mxGeometry width="160" relative="1" as="geometry">
                        <mxPoint x="-629.5" y="-500" as="sourcePoint"/>
                        <mxPoint x="-440" y="-500" as="targetPoint"/>
                    </mxGeometry>
                </mxCell>
                <mxCell id="76" value="manage&amp;nbsp; companies/clients" style="edgeLabel;html=1;align=center;verticalAlign=middle;resizable=0;points=[];" parent="72" vertex="1" connectable="0">
                    <mxGeometry x="0.7864" y="1" relative="1" as="geometry">
                        <mxPoint as="offset"/>
                    </mxGeometry>
                </mxCell>
                <mxCell id="74" value="" style="html=1;verticalAlign=bottom;labelBackgroundColor=none;endArrow=open;endFill=0;dashed=1;" parent="1" edge="1">
                    <mxGeometry width="160" relative="1" as="geometry">
                        <mxPoint x="279" y="-470" as="sourcePoint"/>
                        <mxPoint x="-630" y="-470" as="targetPoint"/>
                    </mxGeometry>
                </mxCell>
                <mxCell id="75" value="Result" style="edgeLabel;html=1;align=center;verticalAlign=middle;resizable=0;points=[];" parent="74" vertex="1" connectable="0">
                    <mxGeometry x="-0.7787" y="2" relative="1" as="geometry">
                        <mxPoint as="offset"/>
                    </mxGeometry>
                </mxCell>
                <mxCell id="77" value="" style="html=1;verticalAlign=bottom;labelBackgroundColor=none;endArrow=open;endFill=0;dashed=1;" parent="1" edge="1">
                    <mxGeometry width="160" relative="1" as="geometry">
                        <mxPoint x="400" y="-410" as="sourcePoint"/>
                        <mxPoint x="-630" y="-410" as="targetPoint"/>
                        <Array as="points">
                            <mxPoint x="370.5" y="-410"/>
                        </Array>
                    </mxGeometry>
                </mxCell>
                <mxCell id="79" value="result" style="edgeLabel;html=1;align=center;verticalAlign=middle;resizable=0;points=[];" parent="77" vertex="1" connectable="0">
                    <mxGeometry x="0.181" y="-2" relative="1" as="geometry">
                        <mxPoint as="offset"/>
                    </mxGeometry>
                </mxCell>
                <mxCell id="82" value="" style="html=1;verticalAlign=bottom;labelBackgroundColor=none;endArrow=open;endFill=0;dashed=1;" parent="1" edge="1">
                    <mxGeometry width="160" relative="1" as="geometry">
                        <mxPoint x="765" y="-200" as="sourcePoint"/>
                        <mxPoint x="-622.5" y="-200" as="targetPoint"/>
                    </mxGeometry>
                </mxCell>
                <mxCell id="83" value="result" style="edgeLabel;html=1;align=center;verticalAlign=middle;resizable=0;points=[];" parent="82" vertex="1" connectable="0">
                    <mxGeometry x="0.2887" y="9" relative="1" as="geometry">
                        <mxPoint x="-80" as="offset"/>
                    </mxGeometry>
                </mxCell>
            </root>
        </mxGraphModel>
    </diagram>
</mxfile>